<svg width="1440" height="1024" viewBox="0 0 1440 1024" fill="none" xmlns="http://www.w3.org/2000/svg">
<g clip-path="url(#clip0_148_7754)">
<rect width="1440" height="1024" fill="#000000"/>
<g filter="url(#filter0_b_148_7754)">
<rect width="1440" height="1024" fill="#000000" />
</g>
<path fill-rule="evenodd" clip-rule="evenodd" d="M995.43 587.421C1005.61 587.421 1013.79 584.045 1019.57 578.486L1019.97 578.685L1018.77 585.237H1047.9L1074.84 433.553L1044.31 439.311L1034.34 490.534C1027.95 486.761 1019.97 484.577 1010.99 484.577C994.632 484.577 981.264 491.129 971.687 501.85C962.109 512.571 956.523 527.263 956.523 543.941C956.523 568.957 972.684 587.421 995.43 587.421ZM1006.4 562.802C994.233 562.802 986.85 554.265 986.85 541.36C986.85 533.219 989.444 525.278 993.834 519.52C998.223 513.763 1005.01 509.99 1012.99 509.99C1019.97 509.99 1025.96 512.571 1029.95 515.748L1022.76 556.051C1018.37 560.022 1012.79 562.802 1006.4 562.802ZM868.332 486.761L850.774 585.237H881.101L893.073 517.932C898.659 513.763 905.643 510.586 912.426 510.586C920.407 510.586 924.797 513.961 924.797 521.109C924.797 523.094 924.398 525.675 923.6 530.242L913.823 585.237H944.151L954.725 525.675C955.523 521.109 955.922 517.138 955.922 513.564C955.922 495.1 944.151 484.578 926.393 484.578C914.821 484.578 904.645 488.747 897.063 495.1L896.664 494.902L899.657 481.004L868.332 486.761ZM363.939 585.237L381.497 486.761L412.822 481.004L409.829 494.902L410.228 495.1C417.81 488.747 427.986 484.578 439.558 484.578C457.316 484.578 469.088 495.1 469.088 513.564C469.088 517.138 468.689 521.109 467.891 525.675L457.316 585.237H426.988L436.765 530.242C437.563 525.675 437.962 523.094 437.962 521.109C437.962 513.961 433.573 510.586 425.592 510.586C418.808 510.586 411.825 513.763 406.238 517.932L394.267 585.237H363.939ZM793.785 587.421C802.564 587.421 810.744 584.641 817.129 579.082L817.528 579.28L816.53 585.237H845.86L863.219 487.555L841.87 491.725C834.288 487.357 825.11 484.577 814.735 484.577C797.576 484.577 782.811 491.526 772.037 502.446C761.263 513.365 755.077 528.653 755.077 545.33C755.077 551.089 755.983 556.505 757.676 561.412H711.748L734.453 433.553L703.128 439.311L677.19 585.237L691.156 585.237L707.518 585.237L780.624 585.237C784.658 586.658 789.07 587.421 793.785 587.421ZM804.36 562.802C792.588 562.802 785.405 554.463 785.405 542.154C785.405 533.021 788.996 523.888 794.383 518.13C799.771 512.373 806.355 509.395 814.934 509.395C819.922 509.395 824.711 510.784 828.302 512.571L820.72 556.25C816.131 560.221 810.545 562.802 804.36 562.802ZM569.448 541.757C569.448 544.975 569.73 548.07 570.276 551.028C562.394 556.086 547.328 563.596 527.348 563.596C512.982 563.596 500.412 558.037 499.015 543.94H565.257C566.853 538.183 568.05 530.837 568.05 525.079C568.05 498.872 549.495 484.577 524.554 484.577C508.393 484.577 495.623 490.335 485.647 500.659C475.671 510.983 469.685 525.278 469.685 541.955C469.685 570.545 491.633 587.421 521.561 587.421C548.693 587.421 569.132 578.18 580.17 571.666C588.951 581.594 602.629 587.421 619.328 587.421C635.689 587.421 649.855 581.464 660.63 571.14C671.404 560.816 677.789 545.926 677.789 530.241C677.789 503.041 657.637 484.577 627.908 484.577C611.547 484.577 597.381 490.533 586.607 500.857C575.833 511.181 569.448 526.072 569.448 541.757ZM639.68 553.073C634.891 558.235 628.706 561.412 620.725 561.412C607.956 561.412 599.775 552.875 599.775 540.962C599.775 532.822 602.768 524.087 607.557 518.925C612.345 513.763 618.53 510.586 626.511 510.586C639.281 510.586 647.461 519.123 647.461 531.035C647.461 539.176 644.468 547.911 639.68 553.073ZM501.609 525.278H540.915V524.682C540.915 511.976 532.336 507.608 523.158 507.608C511.585 507.608 504.602 514.954 501.609 525.278Z" fill="#FBFF3D"/>
<path d="M443.972 487.196C443.972 478.403 449.889 471.274 457.19 471.274C464.49 471.274 470.408 478.403 470.408 487.196C470.408 495.99 464.49 503.118 457.19 503.118C449.889 503.118 443.972 495.99 443.972 487.196Z" fill="black"/>
<path fill-rule="evenodd" clip-rule="evenodd" d="M441.976 487.197C441.976 477.679 448.447 469.29 457.189 469.29C465.931 469.29 472.402 477.679 472.402 487.197C472.402 496.715 465.931 505.104 457.189 505.104C448.447 505.104 441.976 496.715 441.976 487.197ZM457.189 471.275C449.889 471.275 443.971 478.404 443.971 487.197C443.971 495.99 449.889 503.119 457.189 503.119C464.489 503.119 470.407 495.99 470.407 487.197C470.407 478.404 464.489 471.275 457.189 471.275Z" fill="#FBFF3D"/>
<path d="M423.795 487.196C423.795 478.403 429.713 471.274 437.013 471.274C444.314 471.274 450.231 478.403 450.231 487.196C450.231 495.99 444.314 503.118 437.013 503.118C429.713 503.118 423.795 495.99 423.795 487.196Z" fill="black"/>
<path fill-rule="evenodd" clip-rule="evenodd" d="M421.799 487.197C421.799 477.679 428.271 469.29 437.013 469.29C445.755 469.29 452.226 477.679 452.226 487.197C452.226 496.715 445.755 505.104 437.013 505.104C428.271 505.104 421.799 496.715 421.799 487.197ZM437.013 471.275C429.713 471.275 423.795 478.404 423.795 487.197C423.795 495.99 429.713 503.119 437.013 503.119C444.313 503.119 450.231 495.99 450.231 487.197C450.231 478.404 444.313 471.275 437.013 471.275Z" fill="#FBFF3D"/>
<path d="M435.317 484.161C435.317 478.814 438.656 474.48 442.775 474.48C446.895 474.48 450.234 478.814 450.234 484.161C450.234 489.508 446.894 493.842 442.775 493.842C438.656 493.842 435.317 489.508 435.317 484.161Z" fill="#FBFF3D"/>
<path d="M455.422 484.161C455.422 478.814 458.762 474.48 462.881 474.48C467 474.48 470.339 478.814 470.339 484.161C470.339 489.508 467 493.842 462.881 493.842C458.762 493.842 455.422 489.508 455.422 484.161Z" fill="#FBFF3D"/>
<path d="M434.283 477.303C434.787 476.457 436.91 476.963 439.025 478.434C441.14 479.905 442.446 481.783 441.942 482.629C441.438 483.475 439.315 482.969 437.2 481.499C435.085 480.028 433.779 478.15 434.283 477.303Z" fill="black"/>
<path d="M454.389 477.303C454.893 476.457 457.016 476.963 459.131 478.434C461.246 479.905 462.551 481.783 462.047 482.629C461.544 483.475 459.42 482.969 457.306 481.499C455.191 480.028 453.885 478.15 454.389 477.303Z" fill="black"/>
<path d="M805.543 487.197C805.543 495.991 799.625 503.119 792.325 503.119C785.024 503.119 779.106 495.991 779.106 487.197C779.106 478.404 785.024 471.275 792.325 471.275C799.625 471.275 805.543 478.404 805.543 487.197Z" fill="black"/>
<path fill-rule="evenodd" clip-rule="evenodd" d="M807.538 487.197C807.538 496.715 801.067 505.104 792.325 505.104C783.583 505.104 777.112 496.715 777.112 487.197C777.112 477.679 783.583 469.29 792.325 469.29C801.067 469.29 807.538 477.679 807.538 487.197ZM792.325 503.119C799.625 503.119 805.543 495.99 805.543 487.197C805.543 478.403 799.625 471.275 792.325 471.275C785.025 471.275 779.107 478.403 779.107 487.197C779.107 495.99 785.025 503.119 792.325 503.119Z" fill="#FBFF3D"/>
<path d="M825.719 487.197C825.719 495.991 819.801 503.119 812.501 503.119C805.201 503.119 799.283 495.991 799.283 487.197C799.283 478.404 805.201 471.275 812.501 471.275C819.801 471.275 825.719 478.404 825.719 487.197Z" fill="black"/>
<path fill-rule="evenodd" clip-rule="evenodd" d="M827.715 487.197C827.715 496.715 821.243 505.104 812.501 505.104C803.76 505.104 797.288 496.715 797.288 487.197C797.288 477.679 803.76 469.29 812.501 469.29C821.243 469.29 827.715 477.679 827.715 487.197ZM812.501 503.119C819.802 503.119 825.72 495.99 825.72 487.197C825.72 478.403 819.802 471.275 812.501 471.275C805.201 471.275 799.283 478.403 799.283 487.197C799.283 495.99 805.201 503.119 812.501 503.119Z" fill="#FBFF3D"/>
<path d="M814.197 490.233C814.197 495.579 810.858 499.914 806.739 499.914C802.62 499.914 799.28 495.579 799.28 490.233C799.28 484.886 802.62 480.552 806.739 480.552C810.858 480.552 814.197 484.886 814.197 490.233Z" fill="#FBFF3D"/>
<path d="M794.092 490.233C794.092 495.579 790.753 499.914 786.633 499.914C782.514 499.914 779.175 495.579 779.175 490.233C779.175 484.886 782.514 480.552 786.633 480.552C790.753 480.552 794.092 484.886 794.092 490.233Z" fill="#FBFF3D"/>
<path d="M815.231 497.091C814.727 497.937 812.604 497.431 810.489 495.96C808.374 494.489 807.068 492.611 807.572 491.765C808.076 490.918 810.199 491.425 812.314 492.895C814.429 494.366 815.735 496.244 815.231 497.091Z" fill="black"/>
<path d="M795.125 497.091C794.621 497.937 792.498 497.431 790.384 495.96C788.269 494.489 786.963 492.611 787.467 491.765C787.971 490.918 790.094 491.425 792.209 492.895C794.324 494.366 795.629 496.244 795.125 497.091Z" fill="black"/>
<path d="M880.336 712.111C926.559 694.972 958.66 669.339 969.241 636.775C975.463 617.652 974.006 597.368 964.805 576.541L962.901 577.378C971.886 597.826 973.386 617.634 967.316 636.373C939.52 721.696 761.271 758.626 569.944 718.753C378.596 678.822 245.531 576.947 273.326 491.623C284.687 456.799 321.787 429.313 380.731 412.186C437.663 395.608 511.18 390.353 587.89 397.381L588.237 395.544C511.289 388.474 437.404 393.733 380.213 410.407C320.555 427.799 282.892 455.757 271.336 491.244C243.259 577.592 376.929 680.491 569.316 720.628C689.195 745.61 804.012 740.478 880.357 712.169L880.336 712.111Z" fill="url(#paint0_linear_148_7754)"/>
<path d="M1067.35 673.243C1068.72 659.697 1075.39 649.061 1083.83 646.959C1075.36 644.89 1068.69 634.157 1067.35 620.578C1065.98 634.124 1059.31 644.761 1050.87 646.862C1059.34 648.931 1066.01 659.665 1067.35 673.243Z" fill="#FBFF3D"/>
<path d="M322.388 452.645C323.345 443.188 327.993 435.763 333.872 434.296C327.97 432.851 323.322 425.358 322.388 415.879C321.431 425.336 316.782 432.761 310.904 434.228C316.805 435.673 321.454 443.166 322.388 452.645Z" fill="#FBFF3D"/>
<path d="M1110.29 598.717C1110.83 593.094 1113.46 588.679 1116.78 587.807C1113.45 586.948 1110.82 582.492 1110.29 576.856C1109.75 582.479 1107.12 586.894 1103.8 587.766C1107.14 588.625 1109.76 593.081 1110.29 598.717Z" fill="#FBFF3D"/>
</g>
<defs>
<filter id="filter0_b_148_7754" x="-300" y="-300" width="2040" height="1624" filterUnits="userSpaceOnUse" color-interpolation-filters="sRGB">
<feFlood flood-opacity="0" result="BackgroundImageFix"/>
<feGaussianBlur in="BackgroundImageFix" stdDeviation="150"/>
<feComposite in2="SourceAlpha" operator="in" result="effect1_backgroundBlur_148_7754"/>
<feBlend mode="normal" in="SourceGraphic" in2="effect1_backgroundBlur_148_7754" result="shape"/>
</filter>
<linearGradient id="paint0_linear_148_7754" x1="691.309" y1="429.48" x2="577.793" y2="719.382" gradientUnits="userSpaceOnUse">
<stop stop-color="#0D0E11"/>
<stop offset="1" stop-color="#FBFF3D"/>
</linearGradient>
<clipPath id="clip0_148_7754">
<rect width="1440" height="1024" fill="white"/>
</clipPath>
</defs>
</svg>
