<svg width="118" height="26" viewBox="0 0 118 26" fill="none" xmlns="http://www.w3.org/2000/svg">
<path fill-rule="evenodd" clip-rule="evenodd" d="M104.473 25.5818C106.156 25.5818 107.51 25.0207 108.467 24.0964L108.533 24.1294L108.335 25.2187H113.154L117.61 0L112.56 0.957263L110.91 9.47353C109.853 8.84636 108.533 8.48326 107.047 8.48326C104.341 8.48326 102.129 9.57255 100.545 11.355C98.9603 13.1375 98.0361 15.5802 98.0361 18.3529C98.0361 22.512 100.71 25.5818 104.473 25.5818ZM106.288 21.4887C104.275 21.4887 103.053 20.0694 103.053 17.9238C103.053 16.5704 103.483 15.2501 104.209 14.2928C104.935 13.3356 106.057 12.7084 107.378 12.7084C108.533 12.7084 109.523 13.1375 110.183 13.6656L108.995 20.3664C108.269 21.0266 107.345 21.4887 106.288 21.4887ZM83.4461 8.84635L80.5413 25.2187H85.5587L87.5392 14.0287C88.4634 13.3355 89.6187 12.8074 90.741 12.8074C92.0614 12.8074 92.7876 13.3686 92.7876 14.5569C92.7876 14.887 92.7216 15.3161 92.5895 16.0753L90.9721 25.2187H95.9895L97.7389 15.3161C97.8709 14.5569 97.937 13.8967 97.937 13.3025C97.937 10.2327 95.9894 8.48325 93.0517 8.48325C91.1372 8.48325 89.4537 9.17644 88.1994 10.2327L88.1334 10.1997L88.6285 7.88912L83.4461 8.84635ZM0 25.2187L2.90477 8.84635L8.08716 7.88912L7.59202 10.1997L7.65805 10.2327C8.91238 9.17644 10.5958 8.48325 12.5103 8.48325C15.4481 8.48325 17.3956 10.2327 17.3956 13.3025C17.3956 13.8967 17.3296 14.5569 17.1976 15.3161L15.4481 25.2187H10.4308L12.0482 16.0753C12.1802 15.3161 12.2463 14.887 12.2463 14.5569C12.2463 13.3686 11.5201 12.8074 10.1997 12.8074C9.07742 12.8074 7.92212 13.3355 6.99787 14.0287L5.01734 25.2187H0ZM71.1131 25.5818C72.5654 25.5818 73.9188 25.1197 74.9751 24.1954L75.0411 24.2285L74.8761 25.2187H79.7283L82.6001 8.97838L79.0682 9.67157C77.8138 8.94538 76.2954 8.48325 74.579 8.48325C71.7402 8.48325 69.2976 9.63856 67.5151 11.454C65.7326 13.2695 64.7093 15.8112 64.7093 18.5839C64.7093 19.5413 64.8592 20.4418 65.1393 21.2577H57.541L61.2973 0L56.1149 0.957263L51.8237 25.2187L54.1344 25.2187H68.9357C69.6031 25.455 70.333 25.5818 71.1131 25.5818ZM72.8625 21.4887C70.915 21.4887 69.7267 20.1024 69.7267 18.0558C69.7267 16.5374 70.3208 15.019 71.2121 14.0617C72.1033 13.1045 73.1926 12.6094 74.612 12.6094C75.4372 12.6094 76.2294 12.8404 76.8236 13.1375L75.5692 20.3994C74.81 21.0596 73.8858 21.4887 72.8625 21.4887ZM33.999 17.9898C33.999 18.5248 34.0457 19.0396 34.1361 19.5313C32.832 20.3723 30.3396 21.6208 27.0341 21.6208C24.6575 21.6208 22.5779 20.6965 22.3469 18.3529H33.3058C33.5699 17.3956 33.7679 16.1743 33.7679 15.217C33.7679 10.8599 30.6981 8.48325 26.572 8.48325C23.8983 8.48325 21.7857 9.44051 20.1353 11.157C18.4848 12.8734 17.4946 15.2501 17.4946 18.0228C17.4946 22.7761 21.1255 25.5818 26.0769 25.5818C30.5655 25.5818 33.9468 24.0455 35.7728 22.9625C37.2256 24.6131 39.4884 25.5818 42.2512 25.5818C44.9579 25.5818 47.3016 24.5915 49.084 22.8751C50.8665 21.1586 51.9228 18.683 51.9228 16.0753C51.9228 11.5531 48.5889 8.48325 43.6706 8.48325C40.9639 8.48325 38.6202 9.47352 36.8378 11.19C35.0553 12.9064 33.999 15.3821 33.999 17.9898ZM45.6181 19.8713C44.8259 20.7295 43.8026 21.2577 42.4823 21.2577C40.3697 21.2577 39.0163 19.8383 39.0163 17.8578C39.0163 16.5044 39.5115 15.052 40.3037 14.1938C41.0959 13.3355 42.1192 12.8074 43.4395 12.8074C45.5521 12.8074 46.9054 14.2268 46.9054 16.2073C46.9054 17.5607 46.4103 19.0131 45.6181 19.8713ZM22.776 15.2501H29.2787V15.151C29.2787 13.0385 27.8593 12.3123 26.3409 12.3123C24.4264 12.3123 23.2711 13.5336 22.776 15.2501Z" fill="#FBFF3D"/>
</svg>
