<svg width="44" height="44" viewBox="0 0 44 44" fill="none" xmlns="http://www.w3.org/2000/svg">
<circle cx="22" cy="22" r="17.5" fill="#333333" stroke="#FBFF3D"/>
<path d="M20.7245 22.2787C20.6978 19.2003 22.7378 16.6869 25.2808 16.6649C27.8239 16.6429 29.907 19.1206 29.9337 22.199C29.9603 25.2774 27.9204 27.7909 25.3773 27.8129C22.8343 27.8349 20.7511 25.3572 20.7245 22.2787Z" fill="#333333"/>
<path fill-rule="evenodd" clip-rule="evenodd" d="M20.0288 22.2847C20 18.9526 22.2289 15.9962 25.2742 15.9698C28.3195 15.9434 30.5993 18.8608 30.6281 22.193C30.657 25.5251 28.428 28.4815 25.3827 28.5079C22.3374 28.5343 20.0576 25.6169 20.0288 22.2847ZM25.2802 16.6649C22.7372 16.6869 20.6972 19.2003 20.7238 22.2787C20.7505 25.3571 22.8336 27.8349 25.3767 27.8129C27.9198 27.7908 29.9597 25.2774 29.9331 22.199C29.9064 19.1206 27.8233 16.6428 25.2802 16.6649Z" fill="#FBFF3D"/>
<path d="M13.6954 22.3395C13.6688 19.2611 15.7087 16.7477 18.2518 16.7257C20.7948 16.7037 22.878 19.1814 22.9046 22.2598C22.9313 25.3383 20.8913 27.8517 18.3483 27.8737C15.8052 27.8957 13.7221 25.418 13.6954 22.3395Z" fill="#333333"/>
<path fill-rule="evenodd" clip-rule="evenodd" d="M13.0005 22.3456C12.9716 19.0135 15.2006 16.057 18.2459 16.0307C21.2912 16.0043 23.571 18.9217 23.5998 22.2539C23.6286 25.586 21.3997 28.5424 18.3544 28.5688C15.3091 28.5951 13.0293 25.6777 13.0005 22.3456ZM18.2519 16.7257C15.7088 16.7477 13.6689 19.2612 13.6955 22.3396C13.7222 25.418 15.8053 27.8957 18.3484 27.8737C20.8914 27.8517 22.9314 25.3383 22.9047 22.2599C22.8781 19.1814 20.7949 16.7037 18.2519 16.7257Z" fill="#FBFF3D"/>
<path d="M17.7 21.2423C17.6838 19.3706 18.8339 17.8432 20.2689 17.8308C21.7039 17.8184 22.8803 19.3256 22.8964 21.1973C22.9126 23.069 21.7625 24.5963 20.3276 24.6088C18.8926 24.6212 17.7162 23.1139 17.7 21.2423Z" fill="#FBFF3D"/>
<path d="M24.7039 21.1817C24.6877 19.31 25.8378 17.7826 27.2728 17.7702C28.7078 17.7578 29.8842 19.265 29.9004 21.1367C29.9166 23.0084 28.7664 24.5357 27.3315 24.5482C25.8965 24.5606 24.7201 23.0533 24.7039 21.1817Z" fill="#FBFF3D"/>
<path d="M17.3194 18.8446C17.4924 18.5468 18.2335 18.7177 18.9746 19.2261C19.7158 19.7346 20.1764 20.3882 20.0034 20.6859C19.8304 20.9836 19.0894 20.8128 18.3482 20.3043C17.6071 19.7959 17.1465 19.1423 17.3194 18.8446Z" fill="#333333"/>
<path d="M24.3238 18.7839C24.4968 18.4862 25.2379 18.657 25.979 19.1655C26.7202 19.674 27.1808 20.3275 27.0078 20.6253C26.8348 20.923 26.0938 20.7522 25.3526 20.2437C24.6115 19.7352 24.1509 19.0817 24.3238 18.7839Z" fill="#333333"/>
</svg>
