<svg width="1203" height="648" viewBox="0 0 1203 648" fill="none" xmlns="http://www.w3.org/2000/svg">
<g opacity="0.38" filter="url(#filter0_f_137_6796)">
<ellipse cx="655.005" cy="506.625" rx="253" ry="62" fill="#FBFF3D"/>
</g>
<g opacity="0.22" filter="url(#filter1_f_137_6796)">
<ellipse cx="1047" cy="435.125" rx="79" ry="27.5" fill="#FBFF3D"/>
</g>
<g opacity="0.22" filter="url(#filter2_f_137_6796)">
<ellipse cx="178" cy="453.5" rx="40" ry="18.5" fill="#FBFF3D"/>
</g>
<g clip-path="url(#clip0_137_6796)">
<path d="M700.585 514.205L490.585 411.205L459.585 282.205L711.585 367.205L700.585 514.205Z" fill="#0F0F12"/>
<path d="M711.585 367.205L459.585 282.205L595.585 231.205L819.585 286.205L711.585 367.205Z" fill="#0F0F12"/>
<path d="M819.585 286.205L595.585 231.205L502.585 131.205L768.585 159.205L819.585 286.205Z" fill="#0F0F12"/>
<path d="M700.585 514.205L792.585 422.205L819.585 286.205L711.585 367.205L700.585 514.205Z" fill="#0F0F12"/>
<path d="M768.585 159.204L502.585 131.204C502.585 131.204 504.585 88.2044 574.585 91.2044L817.915 102.204C817.915 102.204 781.585 107.204 768.585 159.204Z" stroke="#262626" stroke-miterlimit="10"/>
<path d="M768.585 159.204L819.585 286.204C819.585 286.204 867.585 201.204 842.585 128.204C842.585 128.204 836.585 105.814 819.585 102.514C802.585 99.2144 773.585 123.204 768.585 159.204Z" fill="#0F0F12"/>
<path fill-rule="evenodd" clip-rule="evenodd" d="M819.585 286.354L768.585 159.354L502.585 131.354L595.585 231.354L819.585 286.354ZM799.735 269.124L760.145 170.534L532.585 146.204L601.925 220.554L799.725 269.124H799.735Z" fill="#262626" stroke="#FFFF00" stroke-miterlimit="10"/>
<path d="M673.131 323.328C670.274 335.856 659.57 344.099 649.217 341.737C638.864 339.376 632.794 327.308 635.651 314.779C638.509 302.251 649.212 294.009 659.565 296.37C669.918 298.732 675.989 310.8 673.131 323.328Z" fill="#262626"/>
<path fill-rule="evenodd" clip-rule="evenodd" d="M675.957 323.973C672.863 337.537 660.96 347.39 648.572 344.564C636.183 341.738 629.73 327.698 632.824 314.135C635.918 300.571 647.821 290.718 660.209 293.544C672.598 296.369 679.051 310.41 675.957 323.973ZM649.217 341.737C659.569 344.099 670.273 335.856 673.13 323.328C675.988 310.8 669.917 298.732 659.564 296.37C649.212 294.009 638.508 302.251 635.651 314.779C632.793 327.308 638.864 339.376 649.217 341.737Z" fill="#FBFF3D"/>
<path d="M701.735 329.853C698.877 342.381 688.174 350.623 677.821 348.262C667.468 345.9 661.397 333.832 664.255 321.304C667.112 308.776 677.816 300.533 688.169 302.895C698.522 305.256 704.592 317.324 701.735 329.853Z" fill="#262626"/>
<path fill-rule="evenodd" clip-rule="evenodd" d="M704.562 330.497C701.468 344.061 689.565 353.914 677.176 351.088C664.788 348.263 658.335 334.222 661.428 320.659C664.522 307.096 676.425 297.242 688.814 300.068C701.202 302.894 707.655 316.934 704.562 330.497ZM677.821 348.262C688.174 350.623 698.877 342.381 701.735 329.853C704.593 317.324 698.522 305.256 688.169 302.895C677.816 300.533 667.113 308.776 664.255 321.304C661.397 333.832 667.468 345.9 677.821 348.262Z" fill="#FBFF3D"/>
<path d="M684.416 330.455C682.678 338.074 676.535 343.171 670.695 341.839C664.856 340.507 661.53 333.251 663.268 325.631C665.006 318.012 671.149 312.915 676.989 314.247C682.828 315.579 686.154 322.836 684.416 330.455Z" fill="#FBFF3D"/>
<path d="M655.904 323.952C654.166 331.571 648.023 336.668 642.184 335.336C636.344 334.004 633.019 326.747 634.757 319.128C636.494 311.509 642.638 306.412 648.477 307.744C654.317 309.076 657.642 316.332 655.904 323.952Z" fill="#FBFF3D"/>
<path d="M683.641 340.558C682.655 341.606 679.807 340.197 677.286 337.407C674.762 334.629 673.523 331.532 674.52 330.486C675.506 329.438 678.354 330.847 680.875 333.637C683.399 336.415 684.638 339.513 683.641 340.558Z" fill="#262626"/>
<path d="M655.142 334.057C654.156 335.105 651.308 333.697 648.787 330.907C646.263 328.128 645.024 325.031 646.021 323.986C647.007 322.938 649.855 324.346 652.376 327.136C654.9 329.915 656.139 333.012 655.142 334.057Z" fill="#262626"/>
<path fill-rule="evenodd" clip-rule="evenodd" d="M709.435 353.964L792.105 291.964L596.325 243.895L495.355 281.755L709.435 353.964ZM711.585 367.355L819.585 286.354L595.585 231.354L459.585 282.354L711.585 367.355Z" fill="#262626" stroke="#FFFF00" stroke-miterlimit="10"/>
<path fill-rule="evenodd" clip-rule="evenodd" d="M796.514 101.205H797.074C775.144 110.065 764.834 131.515 759.874 146.165L519.054 120.815C519.694 119.885 520.434 118.945 521.274 118.005C521.834 117.375 522.464 116.635 523.164 115.805C530.294 107.375 545.064 89.8846 574.564 91.1446C574.564 91.1446 574.564 91.1646 574.564 91.2146L574.614 91.1446H574.564C528.724 89.1746 512.044 106.945 505.994 119.435C503.734 124.105 502.954 128.035 502.694 129.925C502.584 130.705 502.564 131.135 502.564 131.135L768.564 159.135C774.544 135.225 785.454 121.255 795.494 113.135C807.294 103.595 817.894 102.135 817.894 102.135L797.064 101.195L796.684 101.175L796.494 101.195L796.514 101.205Z" fill="#262626"/>
<path d="M574.564 91.1446C545.064 89.8846 530.294 107.375 523.164 115.805C522.464 116.635 521.834 117.375 521.274 118.005C520.434 118.945 519.694 119.885 519.054 120.815L759.874 146.165C764.834 131.515 775.144 110.065 797.074 101.205H796.514L796.494 101.195L796.684 101.175L797.064 101.195L817.894 102.135C817.894 102.135 807.294 103.595 795.494 113.135C785.454 121.255 774.544 135.225 768.564 159.135L502.564 131.135C502.564 131.135 502.584 130.705 502.694 129.925C502.954 128.035 503.734 124.105 505.994 119.435C512.044 106.945 528.724 89.1746 574.564 91.1446ZM574.564 91.1446C574.564 91.1446 574.564 91.1646 574.564 91.2146L574.614 91.1446H574.564Z" stroke="#FFFF00" stroke-miterlimit="10"/>
<path fill-rule="evenodd" clip-rule="evenodd" d="M826.705 271.895C822.585 281.025 819.575 286.355 819.575 286.355L768.575 159.355C773.575 123.355 802.575 99.3646 819.575 102.665C836.575 105.965 842.575 128.355 842.575 128.355C861.315 183.085 839.035 244.555 826.705 271.895ZM820.375 256.125C823.225 249.005 826.235 240.625 828.935 231.365C837.525 201.985 842.555 165.325 831.225 132.245L831.095 131.855L831.005 131.505C831.005 131.505 831.005 131.485 830.995 131.465C830.975 131.385 830.925 131.245 830.865 131.035C830.735 130.615 830.505 129.955 830.185 129.125C829.535 127.435 828.545 125.205 827.185 122.955C824.255 118.095 820.875 115.145 817.295 114.455C816.255 114.255 813.855 114.305 810.095 116.015C806.455 117.665 802.255 120.555 798.105 124.735C790.365 132.545 783.555 144.085 780.965 157.995L820.375 256.145V256.125Z" fill="#262626" stroke="#FFFF00" stroke-miterlimit="10"/>
<path fill-rule="evenodd" clip-rule="evenodd" d="M700.585 514.355L711.585 367.355L459.585 282.354L490.585 411.355L700.585 514.355ZM689.935 495.765L698.915 375.744L476.315 300.664L500.925 403.064L689.935 495.765Z" fill="#262626" stroke="#FFFF00" stroke-miterlimit="10"/>
<path fill-rule="evenodd" clip-rule="evenodd" d="M781.525 416.445L801.715 314.755L723.145 373.684L714.965 483.005L781.525 416.445ZM792.585 422.355L819.585 286.354L711.585 367.355L700.585 514.355L792.585 422.355Z" fill="#262626" stroke="#FFFF00" stroke-miterlimit="10"/>
<path d="M452.285 377.424C452.285 377.424 462.765 397.434 464.885 408.704C464.885 408.704 474.205 467.964 518.145 475.954C518.145 475.954 460.135 492.704 449.895 416.834C449.665 415.114 449.515 413.384 449.405 411.654C448.845 403.344 446.035 374.504 433.905 366.274C433.905 366.274 447.515 369.164 452.285 377.414V377.424Z" fill="#262626" stroke="#FBFF3D" stroke-miterlimit="10"/>
<path d="M378.425 357.724L384.245 383.004C384.245 383.004 426.245 347.674 452.275 377.414C452.275 377.414 443.525 350.884 411.875 345.694C411.875 345.694 391.835 344.074 378.425 357.714V357.724Z" fill="#262626" stroke="#FBFF3D" stroke-miterlimit="10"/>
<path d="M518.145 475.954C518.145 475.954 551.625 470.434 560.085 445.694L589.085 459.694C589.085 459.694 559.675 491.214 518.145 475.954Z" fill="#262626" stroke="#FBFF3D" stroke-miterlimit="10"/>
<path d="M865.794 349.215L869.584 367.565C869.584 367.565 814.644 352.555 785.734 380.355C785.734 380.355 799.074 332.535 865.794 349.215Z" fill="#262626" stroke="#FBFF3D" stroke-miterlimit="10"/>
<path d="M785.725 380.354C785.725 380.354 772.935 398.704 769.605 448.744L749.585 473.204C749.585 473.204 746.245 419.824 785.725 380.354Z" fill="#262626" stroke="#FBFF3D" stroke-miterlimit="10"/>
<path d="M759.965 303.034C760.125 286.704 763.865 270.434 770.815 255.654C777.655 241.114 787.525 228.004 800.065 217.914C812.665 207.764 827.825 200.834 843.715 197.824C851.565 196.334 859.605 195.844 867.575 196.364C871.305 196.604 875.085 196.994 878.735 197.834C881.745 198.524 884.895 199.614 887.125 201.844C889.585 204.304 890.295 207.964 889.245 211.244C887.995 215.174 884.405 217.704 880.525 218.664C876.645 219.624 872.525 218.884 868.755 217.674C864.985 216.464 861.555 214.884 858.175 213.054C845.535 206.204 833.675 194.494 833.225 179.254C832.805 164.854 843.165 151.694 856.135 146.324C863.665 143.204 872.145 142.904 880.075 144.464C884.435 145.324 888.715 146.694 892.795 148.474C894.825 149.364 896.815 150.344 898.765 151.404C900.565 152.384 902.685 153.354 904.245 154.684C905.805 156.014 905.745 159.134 903.775 160.194C902.535 160.864 900.905 160.334 899.665 159.924C897.925 159.334 896.325 158.314 895.055 156.994C892.305 154.114 891.365 149.744 891.265 145.884C891.165 141.744 891.945 137.644 893.065 133.684C897.425 118.264 905.945 103.974 917.505 92.8744C920.265 90.2244 923.205 87.7544 926.305 85.4944C927.855 84.3744 926.355 81.7644 924.795 82.9044C910.805 93.0744 900.055 107.214 893.525 123.194C890.215 131.294 887.275 140.454 888.565 149.294C889.165 153.394 890.865 157.594 894.165 160.244C896.805 162.374 901.265 164.494 904.675 163.074C907.425 161.934 908.795 158.754 908.245 155.904C907.945 154.374 907.065 153.044 905.805 152.124C903.905 150.744 901.755 149.604 899.685 148.504C891.335 144.044 882.105 140.944 872.585 140.594C864.215 140.284 855.985 142.254 848.885 146.734C842.345 150.864 836.825 156.834 833.535 163.864C830.165 171.084 829.275 179.174 831.325 186.904C833.375 194.634 838.075 201.304 843.885 206.634C849.825 212.064 856.855 216.214 864.295 219.224C872.205 222.424 882.535 224.134 889.095 217.164C891.955 214.124 893.225 209.884 892.455 205.784C891.795 202.284 889.505 199.424 886.505 197.604C883.505 195.784 879.905 194.894 876.415 194.344C872.105 193.664 867.755 193.254 863.395 193.164C846.005 192.794 828.595 197.204 813.325 205.484C798.055 213.764 785.035 226.154 775.555 240.834C766.015 255.624 759.965 272.604 757.795 290.044C757.265 294.344 756.975 298.674 756.935 303.004C756.915 304.934 759.915 304.934 759.935 303.004L759.965 303.034Z" fill="#FBFF3D"/>
<path d="M413.365 261.975C399.255 251.795 383.135 244.465 366.265 240.225C349.455 236.005 331.845 234.815 314.635 236.875C304.895 238.045 295.305 240.205 286.035 243.435C284.225 244.065 285.005 246.965 286.835 246.325C302.985 240.695 320.115 238.285 337.195 239.005C354.235 239.725 371.215 243.545 386.865 250.345C395.675 254.175 404.065 258.935 411.845 264.555C413.415 265.685 414.915 263.085 413.355 261.965L413.365 261.975Z" fill="#FBFF3D"/>
<path d="M434.865 253.965C426.515 234.645 412.315 218.015 394.715 206.505C389.775 203.275 384.575 200.475 379.175 198.125C377.425 197.365 375.895 199.945 377.665 200.715C396.615 208.965 412.945 222.875 424.145 240.235C427.275 245.085 429.985 250.185 432.275 255.475C433.035 257.245 435.625 255.715 434.865 253.965Z" fill="#FBFF3D"/>
<path d="M832.855 331.714C850.145 326.804 868.725 327.034 885.925 332.234C890.835 333.724 895.595 335.614 900.195 337.894C901.915 338.754 903.445 336.164 901.705 335.304C885.015 327.014 865.985 323.664 847.465 325.784C842.255 326.384 837.105 327.384 832.055 328.814C830.205 329.344 830.985 332.234 832.855 331.704V331.714Z" fill="#FBFF3D"/>
<path d="M460.935 200.905C475.545 198.335 493.015 195.605 504.815 206.905C509.335 211.225 512.305 217.315 511.315 223.675C510.265 230.405 505.465 235.965 500.035 239.755C494.605 243.545 485.565 248.075 480.435 241.815C478.625 239.605 478.635 236.595 480.605 234.505C482.575 232.415 485.445 231.465 488.135 230.845C491.735 230.015 495.525 229.755 499.205 229.535C503.415 229.285 507.655 229.315 511.845 229.805C519.025 230.655 526.095 233.075 531.855 237.525C536.965 241.475 540.925 247.035 541.975 253.495C542.915 259.275 541.505 265.785 537.625 270.265C536.645 271.395 535.535 272.385 534.295 273.225C532.695 274.295 534.195 276.895 535.805 275.815C541.635 271.915 544.795 265.285 545.195 258.385C545.615 251.055 542.655 244.105 537.685 238.795C525.555 225.845 506.345 225.095 489.905 227.475C484.105 228.315 475.805 231.285 476.055 238.475C476.185 242.115 478.815 245.255 482.035 246.735C486.015 248.575 490.525 247.865 494.445 246.245C501.515 243.335 508.245 238.055 511.865 231.225C515.485 224.395 515.295 217.055 511.565 210.615C507.915 204.325 501.555 199.725 494.695 197.505C485.805 194.625 476.195 195.445 467.115 196.835C464.785 197.195 462.455 197.595 460.135 198.005C458.235 198.335 459.045 201.235 460.935 200.895V200.905Z" fill="#FBFF3D"/>
<path d="M574.585 91.2046L796.585 101.205" stroke="#FFFF00" stroke-miterlimit="10"/>
<path d="M459.985 135.338C459.32 128.365 463.45 122.267 469.213 121.718C474.975 121.169 480.183 126.376 480.847 133.35C481.512 140.324 477.382 146.421 471.619 146.971C465.857 147.52 460.649 142.312 459.985 135.338Z" fill="#262626"/>
<path fill-rule="evenodd" clip-rule="evenodd" d="M458.411 135.488C457.692 127.938 462.167 120.802 469.063 120.144C475.959 119.487 481.701 125.65 482.421 133.2C483.141 140.75 478.666 147.887 471.77 148.544C464.874 149.201 459.131 143.038 458.411 135.488ZM469.213 121.718C463.45 122.267 459.32 128.365 459.985 135.338C460.65 142.312 465.857 147.52 471.62 146.97C477.383 146.421 481.512 140.323 480.848 133.35C480.183 126.376 474.976 121.168 469.213 121.718Z" fill="#FBFF3D"/>
<path d="M444.062 136.856C443.397 129.882 447.527 123.784 453.29 123.235C459.052 122.686 464.26 127.894 464.924 134.867C465.589 141.841 461.459 147.939 455.697 148.488C449.934 149.037 444.727 143.829 444.062 136.856Z" fill="#262626"/>
<path fill-rule="evenodd" clip-rule="evenodd" d="M442.49 137.006C441.77 129.456 446.245 122.319 453.141 121.662C460.037 121.005 465.779 127.168 466.499 134.717C467.219 142.267 462.744 149.404 455.848 150.061C448.952 150.719 443.209 144.556 442.49 137.006ZM453.291 123.235C447.528 123.785 443.398 129.882 444.063 136.856C444.728 143.83 449.935 149.037 455.698 148.488C461.461 147.939 465.59 141.841 464.926 134.867C464.261 127.894 459.054 122.686 453.291 123.235Z" fill="#FBFF3D"/>
<path d="M452.924 133.581C452.52 129.339 454.828 125.65 458.078 125.34C461.328 125.03 464.292 128.217 464.696 132.459C465.1 136.7 462.792 140.389 459.542 140.699C456.291 141.009 453.328 137.822 452.924 133.581Z" fill="#FBFF3D"/>
<path d="M468.795 132.068C468.391 127.827 470.699 124.137 473.949 123.827C477.2 123.518 480.163 126.705 480.567 130.946C480.971 135.187 478.663 138.876 475.413 139.186C472.163 139.496 469.199 136.309 468.795 132.068Z" fill="#FBFF3D"/>
<path d="M451.596 128.219C451.927 127.508 453.642 127.749 455.424 128.762C457.206 129.768 458.378 131.159 458.04 131.871C457.71 132.582 455.994 132.34 454.212 131.328C452.43 130.321 451.259 128.93 451.596 128.219Z" fill="#262626"/>
<path d="M467.46 126.707C467.791 125.996 469.506 126.237 471.289 127.25C473.07 128.256 474.242 129.647 473.905 130.359C473.574 131.07 471.858 130.829 470.076 129.816C468.295 128.809 467.123 127.418 467.46 126.707Z" fill="#262626"/>
<path d="M836.888 438.29C838.533 431.905 835.591 425.63 830.315 424.271C825.039 422.912 819.432 426.987 817.788 433.371C816.144 439.756 819.086 446.032 824.362 447.39C829.638 448.749 835.244 444.674 836.888 438.29Z" fill="#262626"/>
<path fill-rule="evenodd" clip-rule="evenodd" d="M838.329 438.661C840.109 431.749 836.999 424.456 830.686 422.83C824.373 421.204 818.128 426.088 816.348 433C814.568 439.912 817.677 447.205 823.991 448.831C830.304 450.456 836.549 445.573 838.329 438.661ZM830.315 424.271C835.591 425.629 838.533 431.905 836.888 438.29C835.244 444.674 829.638 448.749 824.362 447.39C819.086 446.032 816.144 439.756 817.788 433.371C819.432 426.987 825.039 422.912 830.315 424.271Z" fill="#FBFF3D"/>
<path d="M851.467 442.044C853.111 435.659 850.169 429.383 844.893 428.025C839.617 426.666 834.01 430.741 832.366 437.125C830.722 443.51 833.664 449.785 838.94 451.144C844.216 452.503 849.823 448.428 851.467 442.044Z" fill="#262626"/>
<path fill-rule="evenodd" clip-rule="evenodd" d="M852.906 442.415C854.686 435.502 851.577 428.21 845.263 426.584C838.95 424.958 832.705 429.842 830.925 436.754C829.145 443.666 832.254 450.959 838.568 452.585C844.881 454.21 851.126 449.327 852.906 442.415ZM844.892 428.025C850.168 429.383 853.11 435.659 851.466 442.044C849.821 448.428 844.215 452.503 838.939 451.144C833.663 449.785 830.721 443.51 832.365 437.125C834.009 430.741 839.616 426.666 844.892 428.025Z" fill="#FBFF3D"/>
<path d="M843.711 437.695C844.711 433.812 843.108 430.043 840.133 429.277C837.157 428.51 833.933 431.037 832.934 434.92C831.934 438.803 833.536 442.572 836.512 443.338C839.488 444.104 842.711 441.578 843.711 437.695Z" fill="#FBFF3D"/>
<path d="M829.18 433.953C830.18 430.07 828.578 426.301 825.602 425.535C822.626 424.769 819.403 427.295 818.403 431.178C817.403 435.061 819.005 438.83 821.981 439.596C824.957 440.363 828.181 437.836 829.18 433.953Z" fill="#FBFF3D"/>
<path d="M845.734 432.906C845.531 432.197 843.901 432.169 842.095 432.848C840.291 433.521 838.997 434.642 839.206 435.353C839.409 436.063 841.039 436.09 842.845 435.411C844.649 434.738 845.943 433.617 845.734 432.906Z" fill="#262626"/>
<path d="M831.21 429.166C831.008 428.457 829.378 428.429 827.572 429.108C825.768 429.781 824.474 430.902 824.683 431.613C824.886 432.323 826.516 432.35 828.321 431.671C830.126 430.998 831.419 429.877 831.21 429.166Z" fill="#262626"/>
</g>
<path d="M990.919 132.135C995.024 135.002 1000.65 137.783 1007.08 139.939C1029.31 147.398 1050.68 143.238 1057.51 122.877C1062.99 106.535 1053.28 91.9518 1035.06 85.8415C1024.88 82.4269 1013.35 82.1373 1003.43 83.2804L1021.36 50.2518C1031.55 49.1986 1044.24 50.4733 1056.03 54.427C1091.39 66.2882 1112.24 98.3169 1100.83 132.341C1088.97 167.704 1053.46 183.811 1017.74 173.021L1005.91 191.407L969.206 179.096L990.919 132.135ZM943.676 213.451C948.528 198.984 963.642 192.132 977.841 196.894C991.236 201.387 997.376 215.07 993.153 227.662C988.3 242.129 973.186 248.981 958.987 244.218C945.592 239.725 939.452 226.042 943.676 213.451Z" fill="url(#paint0_linear_137_6796)"/>
<path d="M143.747 338.215C146.016 337.262 148.649 335.656 151.233 333.551C160.172 326.271 164.055 316.302 157.389 308.117C152.038 301.547 143.428 301.753 136.105 307.717C132.012 311.05 128.865 315.763 126.734 320.185L117.721 304.06C119.96 299.55 123.821 294.613 128.56 290.754C142.776 279.176 161.559 278.926 172.698 292.603C184.276 306.819 181.643 325.801 167.778 337.81L172.31 347.553L157.556 359.57L143.747 338.215ZM165.125 379.2C160.388 373.385 161.511 365.305 167.219 360.657C172.604 356.271 179.901 357.314 184.024 362.375C188.76 368.191 187.638 376.27 181.93 380.919C176.545 385.305 169.247 384.262 165.125 379.2Z" fill="url(#paint1_linear_137_6796)"/>
<path d="M190.886 94.4633C192.232 94.7603 193.955 94.8754 195.818 94.7469C202.258 94.3028 207.253 90.9957 206.846 85.0987C206.52 80.3655 202.515 77.6792 197.238 78.043C194.29 78.2464 191.328 79.3862 188.925 80.7213L190.009 70.4336C192.489 69.0931 195.85 68.0817 199.264 67.8462C209.506 67.1399 218.18 73.0905 218.86 82.9448C219.566 93.1871 212.232 101.021 202.012 102.038L200.939 107.959L190.308 108.692L190.886 94.4633ZM187.432 120.117C187.143 115.927 190.266 112.593 194.378 112.31C198.258 112.042 201.26 114.876 201.511 118.523C201.8 122.713 198.678 126.046 194.565 126.33C190.686 126.598 187.684 123.764 187.432 120.117Z" fill="url(#paint2_linear_137_6796)"/>
<defs>
<filter id="filter0_f_137_6796" x="344.605" y="387.225" width="620.8" height="238.8" filterUnits="userSpaceOnUse" color-interpolation-filters="sRGB">
<feFlood flood-opacity="0" result="BackgroundImageFix"/>
<feBlend mode="normal" in="SourceGraphic" in2="BackgroundImageFix" result="shape"/>
<feGaussianBlur stdDeviation="28.7" result="effect1_foregroundBlur_137_6796"/>
</filter>
<filter id="filter1_f_137_6796" x="920.005" y="359.625" width="254" height="151" filterUnits="userSpaceOnUse" color-interpolation-filters="sRGB">
<feFlood flood-opacity="0" result="BackgroundImageFix"/>
<feBlend mode="normal" in="SourceGraphic" in2="BackgroundImageFix" result="shape"/>
<feGaussianBlur stdDeviation="24" result="effect1_foregroundBlur_137_6796"/>
</filter>
<filter id="filter2_f_137_6796" x="105.797" y="402.797" width="144.405" height="101.405" filterUnits="userSpaceOnUse" color-interpolation-filters="sRGB">
<feFlood flood-opacity="0" result="BackgroundImageFix"/>
<feBlend mode="normal" in="SourceGraphic" in2="BackgroundImageFix" result="shape"/>
<feGaussianBlur stdDeviation="16.1013" result="effect1_foregroundBlur_137_6796"/>
</filter>
<linearGradient id="paint0_linear_137_6796" x1="1061.38" y1="56.2242" x2="925.554" y2="331.221" gradientUnits="userSpaceOnUse">
<stop stop-color="#FBFF3D"/>
<stop offset="1" stop-color="white"/>
</linearGradient>
<linearGradient id="paint1_linear_137_6796" x1="130.714" y1="289" x2="194" y2="388" gradientUnits="userSpaceOnUse">
<stop stop-color="#FBFF3D"/>
<stop offset="1" stop-color="white"/>
</linearGradient>
<linearGradient id="paint2_linear_137_6796" x1="200.816" y1="67.7392" x2="197.5" y2="133.5" gradientUnits="userSpaceOnUse">
<stop stop-color="#FBFF3D"/>
<stop offset="1" stop-color="white"/>
</linearGradient>
<clipPath id="clip0_137_6796">
<rect width="641.98" height="433.03" fill="white" transform="translate(285.005 82.6245)"/>
</clipPath>
</defs>
</svg>
