<svg width="266" height="56" viewBox="0 0 266 56" fill="none" xmlns="http://www.w3.org/2000/svg">
    <path
        d="M2.28323 42.5009C6.62324 45.2309 12.5032 46.9109 16.0032 46.9109C18.6632 46.9109 20.5532 46.0709 20.5532 44.0409C20.5532 42.8509 19.9232 42.2909 18.0332 41.5209C16.1432 40.7509 11.5932 39.8409 8.65324 38.3009C5.71323 36.7609 3.89323 34.3109 3.89323 30.7409C3.89323 23.3209 10.4032 18.7709 19.1532 18.7709C23.8432 18.7709 29.0932 20.0309 32.8732 21.9909L31.4032 30.4609C27.2732 28.2909 22.2332 26.8909 18.9432 26.8909C16.2832 26.8909 14.5332 27.7309 14.5332 29.5509C14.5332 30.7409 15.3732 31.4409 17.8232 32.2109C20.2732 32.9809 25.2432 34.3109 27.6232 35.9209C30.0032 37.5309 31.1932 39.5609 31.1932 42.7109C31.1932 50.4809 24.4732 55.0309 15.4432 55.0309C10.4032 55.0309 4.80324 53.6309 0.743235 51.4609L2.28323 42.5009ZM53.4111 55.0309C42.9811 55.0309 35.9111 48.5209 35.9111 38.9309C35.9111 33.4009 38.1511 28.1509 41.9311 24.5109C45.7111 20.8709 50.6811 18.7709 56.4211 18.7709C66.8511 18.7709 73.9211 25.2809 73.9211 34.8709C73.9211 40.4009 71.6811 45.6509 67.9011 49.2909C64.1211 52.9309 59.1511 55.0309 53.4111 55.0309ZM53.9011 45.8609C56.7011 45.8609 58.8711 44.7409 60.5511 42.9209C62.2311 41.1009 63.2811 38.0209 63.2811 35.1509C63.2811 30.9509 60.4111 27.9409 55.9311 27.9409C53.1311 27.9409 50.9611 29.0609 49.2811 30.8809C47.6011 32.7009 46.5511 35.7809 46.5511 38.6509C46.5511 42.8509 49.4211 45.8609 53.9011 45.8609ZM77.1089 54.2609L86.5589 0.780891L97.1989 0.780891L87.7489 54.2609H77.1089ZM119.41 51.8809C117.38 53.8409 114.51 55.0309 110.94 55.0309C102.96 55.0309 97.2896 48.5209 97.2896 39.7009C97.2896 33.8209 99.2496 28.6409 102.61 24.8609C105.97 21.0809 110.66 18.7709 116.4 18.7709C119.55 18.7709 122.35 19.5409 124.59 20.8709L128.16 0.780891H138.8L129.35 54.2609L119.13 54.2609L119.55 51.9509L119.41 51.8809ZM107.93 38.7909C107.93 43.3409 110.52 46.3509 114.79 46.3509C117.03 46.3509 118.99 45.3709 120.53 43.9709L123.05 29.7609C121.65 28.6409 119.55 27.7309 117.1 27.7309C114.3 27.7309 111.92 29.0609 110.38 31.0909C108.84 33.1209 107.93 35.9209 107.93 38.7909ZM172.125 55.0309C161.695 55.0309 154.625 48.5209 154.625 38.9309C154.625 33.4009 156.865 28.1509 160.645 24.5109C164.425 20.8709 169.395 18.7709 175.135 18.7709C185.565 18.7709 192.635 25.2809 192.635 34.8709C192.635 40.4009 190.395 45.6509 186.615 49.2909C182.835 52.9309 177.865 55.0309 172.125 55.0309ZM172.615 45.8609C175.415 45.8609 177.585 44.7409 179.265 42.9209C180.945 41.1009 181.995 38.0209 181.995 35.1509C181.995 30.9509 179.125 27.9409 174.645 27.9409C171.845 27.9409 169.675 29.0609 167.995 30.8809C166.315 32.7009 165.265 35.7809 165.265 38.6509C165.265 42.8509 168.135 45.8609 172.615 45.8609ZM218.083 54.2609L218.573 51.3909L218.433 51.3209C215.773 53.5609 212.133 55.0309 208.213 55.0309C201.913 55.0309 197.713 51.2509 197.713 44.6709C197.713 43.4109 197.853 41.7309 198.133 40.1209L201.773 19.5409H212.413L209.053 38.6509C208.773 40.2609 208.633 41.1709 208.633 42.0109C208.633 44.7409 210.173 45.9309 213.043 45.9309C215.423 45.9309 217.873 44.8109 219.833 43.4809L224.033 19.5409H234.673L228.513 54.2609H218.083ZM247.467 11.0009L258.527 8.41089L256.567 19.5409H265.597L264.057 28.3609H255.027L252.997 39.7709C252.857 40.6109 252.717 41.4509 252.717 42.1509C252.717 44.8809 254.327 46.1409 256.987 46.1409C258.317 46.1409 259.857 45.7909 261.047 45.2309L259.437 54.1209C258.037 54.6809 255.937 55.0309 253.837 55.0309C247.117 55.0309 241.797 51.8109 241.797 44.6009C241.797 43.3409 242.007 41.9409 242.287 40.4009L244.387 28.3609H238.787L240.327 19.5409H245.997L247.467 11.0009Z"
        fill="#FBFF3D" />
</svg>